<svg x="0px" y="0px"
	 width="134.13px" height="108.99px" viewBox="0 0 134.13 108.99"
>
<defs>
</defs>
<path d="M45.83,14.7c-1.11-0.07-2.22-0.2-3.34-0.21c-13.13-0.01-26.27-0.08-39.4,0.05c-2.5,0.02-3.24-0.75-3.07-3.14
	c0.19-2.63,0.2-5.29,0-7.92C-0.17,0.86,0.66-0.02,3.41,0c15.16,0.13,30.32-0.02,45.48,0.09c12.69,0.09,25.4-0.03,38.05,0.74
	c10.68,0.65,20.6,4.12,29.24,10.89c9.69,7.6,14.9,17.68,16.86,29.53c1.91,11.54,1.47,23.08-2.62,34.12
	c-5.2,14.01-14.43,24.58-28.74,29.82c-15.24,5.59-30.5,5.09-45.16-1.98c-15.74-7.58-24.62-20.6-27.73-37.57
	c-2.09-11.38-1.56-22.59,3.52-33.29c2.96-6.23,6.86-11.66,12.47-15.77c0.49-0.36,1.08-0.59,1.62-0.88
	C46.21,15.38,46.02,15.04,45.83,14.7z M43.95,53.27c0.1,1.32,0.22,2.63,0.28,3.95C45,73.54,55.41,89.93,74.56,93.1
	c14.11,2.33,26.25-1.19,35.09-13.03c6.27-8.4,8.19-18.08,7.97-28.4c-0.2-8.95-2.81-17.01-8.43-23.92
	c-7.86-9.66-18.45-13.53-30.62-13.1c-11.21,0.39-20.71,4.58-27.44,13.94C45.84,35.95,44,44.36,43.95,53.27z"/>
</svg>
