<svg version="1.1" xmlns="http://www.w3.org/2000/svg" xmlns:xlink="http://www.w3.org/1999/xlink" x="0px" y="0px"
	 width="100.56px" height="81.72px" viewBox="0 0 100.56 81.72" style="overflow:visible;enable-background:new 0 0 100.56 81.72;"
	 xml:space="preserve">
<defs>
</defs>
<path d="M34.36,11.02c-0.83-0.05-1.67-0.15-2.5-0.15c-9.85-0.01-19.69-0.06-29.54,0.04c-1.87,0.02-2.43-0.56-2.3-2.36
	c0.14-1.97,0.15-3.97,0-5.94C-0.13,0.64,0.5-0.02,2.55,0c11.37,0.09,22.73-0.02,34.1,0.06c9.51,0.07,19.04-0.02,28.53,0.56
	c8.01,0.49,15.45,3.09,21.92,8.17c7.26,5.7,11.17,13.25,12.64,22.14c1.43,8.65,1.1,17.31-1.97,25.58
	c-3.9,10.51-10.82,18.43-21.55,22.36c-11.43,4.19-22.86,3.81-33.86-1.48c-11.8-5.68-18.46-15.44-20.79-28.16
	c-1.57-8.54-1.17-16.94,2.64-24.96c2.22-4.67,5.15-8.74,9.35-11.82c0.37-0.27,0.81-0.44,1.21-0.66
	C34.64,11.53,34.5,11.28,34.36,11.02z M32.95,39.94c0.07,0.99,0.17,1.97,0.21,2.96c0.57,12.24,8.38,24.53,22.74,26.9
	c10.58,1.75,19.68-0.89,26.31-9.77c4.7-6.29,6.14-13.55,5.97-21.29c-0.15-6.71-2.11-12.75-6.32-17.93
	c-5.9-7.24-13.83-10.14-22.95-9.82c-8.4,0.29-15.53,3.44-20.57,10.45C34.37,26.96,32.99,33.26,32.95,39.94z"/>
</svg>
