<svg
	x="0px"
	y="0px"
	width="86.27px"
	height="123.26px"
	viewBox="0 0 86.27 123.26"
>
	<style type="text/css">
		.st0 {
			stroke: #000000;
			stroke-miterlimit: 10;
		}
		.st1 {
			fill: #f7f8f9;
		}
	</style>
	<defs />
	<g>
		<path
			class="st0"
			d="M46.17,39.39c9.03,5.2,10.54,13.26,10.66,21.59c0.26,17.45,0.05,34.92,0.15,52.37
		c0.01,2.22-0.71,3.38-2.75,4.22c-11.33,4.68-22.97,6.8-35.04,3.79C6.49,118.2-0.68,106.6,0.66,92.08
		c1.31-14.17,9.92-23.07,23.37-24.02c6.15-0.44,12.33-0.63,18.29,1.32c2.17,0.71,3.08,0.62,3.04-1.98
		c-0.06-4.63,0.03-9.26-0.84-13.82c-1.07-5.63-4.7-8.86-10.17-10.24c-8.21-2.06-16.64-1.86-24.98-2.4
		c-3.94-0.26-4.15-2.08-4.11-5.18c0.04-3,0.02-4.97,4.05-5.22c16.22-0.97,32.42-2.32,48.62-3.53c0.34-0.03,0.68-0.02,1.03-0.05
		c14.42-1.23,17.82-6.41,13.8-20.4c-0.43-1.49-3.67-4.67,0.06-5.12c3.15-0.38,8.01-3.08,10.01,2.76c1.27,3.74,2.33,7.52,2.74,11.43
		c1.34,12.82-3.91,19.37-16.75,21.79C61.7,38.76,54.48,38.11,46.17,39.39z"
		/>
		<path
			class="st1"
			d="M45.33,95.16c0,2.05,0,4.1,0,6.15c0,7.58,0.01,7.65-7.57,9.03c-2.84,0.52-5.77,0.84-8.66,0.83
		c-10.3-0.07-16.41-6.19-16.4-16.18c0.02-10.04,5.57-15.47,16.09-15.73C44.05,78.89,45.33,80.11,45.33,95.16z"
		/>
	</g>
</svg>
