<svg version="1.1" xmlns="http://www.w3.org/2000/svg" xmlns:xlink="http://www.w3.org/1999/xlink" x="0px" y="0px" width="131.2px"
	 height="101.96px" viewBox="0 0 131.2 101.96" style="overflow:visible;enable-background:new 0 0 131.2 101.96;"
	 xml:space="preserve">
<style type="text/css">
	.st1{fill:#FFFFFF;stroke:#000000;stroke-miterlimit:10;}
</style>
<defs>
</defs>
<g>
	<path class="st0" d="M41.31,39.08c-2.03,1.7-2.96,3.58-4.47,5.03c-7.96,7.67-19.41,6.69-27.28,0.53
		C-3.25,34.64-2.31,13.98,11.32,5.07c9.34-6.11,18.98-5.88,28.42-0.6c5.83,3.26,8.46,9.18,10.23,15.34
		C55.04,37.48,60,55.17,65,72.86c0.18,0.64,0.37,1.27,0.58,1.97c0.87-0.44,1-1.27,1.21-2c4.89-17.02,9.73-34.06,14.67-51.08
		c2.38-8.23,6.35-15.33,14.63-19.05c9.8-4.41,22.46-1.49,29.22,6.69c6.73,8.14,7.2,20.85,1.11,29.72
		c-6.09,8.86-16.14,12.58-25.29,9.33c-3.96-1.4-6.99-4.02-9.44-7.38c-0.42-0.57-0.64-1.55-1.51-1.48c-0.99,0.08-0.8,1.13-1,1.79
		c-5.28,17.34-10.52,34.7-15.81,52.04c-0.77,2.52-0.75,5.74-2.66,7.32c-1.65,1.37-4.63,0.35-7.02,0.38
		c-4.55,0.06-4.51,0.01-5.86-4.7c-4.64-16.15-9.3-32.3-13.96-48.44C43.07,45.14,42.24,42.31,41.31,39.08z"/>
	<path class="st1" d="M25.19,13.46c6.34-0.02,11.28,4.98,11.25,11.38c-0.04,6.59-5.02,11.79-11.26,11.75
		c-6.28-0.04-11.48-5.33-11.45-11.65C13.76,18.38,18.64,13.49,25.19,13.46z"/>
	<path class="st1" d="M106.54,13.46c6.26,0.01,11.13,5.07,11.14,11.58c0.01,6.35-5.12,11.62-11.24,11.55
		c-6.27-0.07-11.57-5.47-11.48-11.71C95.05,18.33,100,13.45,106.54,13.46z"/>
</g>
</svg>
