<svg version="1.1" xmlns="http://www.w3.org/2000/svg" xmlns:xlink="http://www.w3.org/1999/xlink" x="0px" y="0px" width="98.27px"
	 height="114.25px" viewBox="0 0 98.27 114.25" style="overflow:visible;enable-background:new 0 0 98.27 114.25;"
	 xml:space="preserve">
<defs>
</defs>
<path d="M62.17,20.96c-10.47-7.97-26.08-8.61-34.11-0.35c2.66,3.79,5.39,7.63,8.08,11.49c3.91,5.61,3.76,3.87-0.25,9.08
	c-2.73,3.55-5.46,7.11-8.34,10.53c-0.65,0.78-1.93,1.44-2.93,1.46c-7.4,0.12-14.81,0.03-22.22,0.1c-1.75,0.02-2.46-0.51-2.4-2.34
	c0.11-3.38,0.13-6.77,0-10.15c-0.08-2.03,0.81-2.45,2.61-2.42c5.94,0.08,11.89,0.03,17.83,0.03c0.96,0,1.92,0,3.55,0
	c-1.08-1.62-1.72-2.68-2.46-3.65C17.65,29.64,13.83,24.5,9.8,19.54C8.53,17.96,8.68,17,9.89,15.58c7.4-8.68,16.8-13.6,28.04-15.07
	c17.45-2.28,32.34,3.1,44.52,15.6c8.1,8.32,13.2,18.43,14.95,29.96c3.32,21.9-2.63,40.8-19.35,55.67
	C67.28,111.31,54.3,115.11,40,114.08c-14.75-1.06-25.5-8.42-32.57-21.35c-1.02-1.86-0.65-3.08,0.59-4.61
	C25.4,66.66,42.73,45.17,60.06,23.68C60.75,22.83,61.4,21.96,62.17,20.96z M73.69,31.47c-0.56,0.38-0.83,0.48-1,0.68
	C57.63,50.74,42.56,69.31,27.6,87.97c-0.47,0.59-0.3,2.27,0.22,2.98c2.86,3.91,6.84,6.25,11.54,7.3
	c13.8,3.09,28.85-3.52,36.09-16.03c6.9-11.91,7.66-24.73,4.79-37.89C79.21,39.58,77.11,35.25,73.69,31.47z"/>
</svg>
