<svg version="1.1" xmlns="http://www.w3.org/2000/svg" xmlns:xlink="http://www.w3.org/1999/xlink" x="0px" y="0px" width="87.31px"
	 height="100.11px" viewBox="0 0 87.31 100.11" style="overflow:visible;enable-background:new 0 0 87.31 100.11;"
	 xml:space="preserve">
<style type="text/css">
	.st1{fill:#FFFFFF;stroke:#000000;stroke-miterlimit:10;}
</style>
<defs>
</defs>
<g>
	<path class="st0" d="M25.64,41.21c0.66,3.53-0.03,6.54-2.31,9.15c-3.42,3.91-9.12,5.27-13.57,3.17c-4.24-2.01-7.22-7.7-6.51-12.45
		c1.25-8.41,7.66-13.44,16.58-13c4.34,0.21,8.54,1.13,12.59,2.62c2,0.74,2.81,0.64,2.71-1.79c-0.16-3.89-0.14-7.8,0-11.69
		c0.07-2.03-0.5-2.71-2.62-2.68c-9.87,0.11-19.74,0.01-29.61,0.09c-1.77,0.01-2.5-0.32-2.39-2.29c0.18-3.31,0.1-6.64,0.02-9.95
		C0.5,1.05,0.78,0.5,2.29,0.5c27.54,0.05,55.07,0.05,82.61,0c1.6,0,1.91,0.53,1.9,2c-0.04,31.69-0.04,63.39,0.01,95.08
		c0,1.72-0.58,2.05-2.12,2.01c-3.56-0.1-7.14-0.15-10.7,0.01c-2.02,0.09-2.68-0.44-2.65-2.57c0.12-8.38,0-16.76,0.09-25.14
		c0.02-1.62-0.5-2.54-1.84-3.4c-5.72-3.66-11.37-7.45-17.07-11.16c-0.58-0.38-1.19-1.27-1.92-0.78c-0.63,0.43-0.28,1.39-0.28,2.11
		c-0.02,4.98-0.07,9.96,0.02,14.93c0.03,1.57-0.34,2.19-2.04,2.13c-3.73-0.13-7.47-0.12-11.19,0c-1.68,0.05-2.06-0.52-2.04-2.11
		c0.07-8.54-0.01-17.09,0.07-25.64c0.02-1.72-0.53-2.75-2.04-3.54C30.77,43.2,28.54,41.8,25.64,41.21z"/>
	<path class="st1" d="M71.06,53.75c-4.35-2.87-8.68-5.71-12.99-8.59c-2.54-1.69-5.91-2.93-7.33-5.31c-1.49-2.5-0.38-6.14-0.42-9.28
		c-0.06-4.56,0.04-9.11-0.04-13.67c-0.03-1.61,0.29-2.4,2.16-2.36c5.71,0.11,11.43,0.06,17.14,0.02c1.13-0.01,1.85,0.06,1.84,1.54
		c-0.06,12.34-0.04,24.69-0.06,37.03C71.36,53.27,71.24,53.4,71.06,53.75z"/>
</g>
</svg>
