<svg version="1.1" xmlns="http://www.w3.org/2000/svg" xmlns:xlink="http://www.w3.org/1999/xlink" x="0px" y="0px"
	 width="111.12px" height="104.48px" viewBox="0 0 111.12 104.48"
	 style="overflow:visible;enable-background:new 0 0 111.12 104.48;" xml:space="preserve">
<defs>
</defs>
<g>
	<path class="st0" d="M49.39,35.29c-10.29,0-20.58,0.04-30.87-0.04c-1.89-0.02-2.53,0.4-2.5,2.44c0.13,8.3,0.01,16.6,0.09,24.9
		c0.02,1.75-0.5,2.3-2.25,2.23c-3.31-0.13-6.64-0.09-9.96-0.01C2.49,64.83,1.99,64.33,2,62.94C2.03,50.16,2.05,37.38,1.98,24.6
		c-0.01-1.99,1.14-1.79,2.43-1.79c11.78,0.01,23.57-0.05,35.35,0.06c2.43,0.02,3.12-0.72,3.07-3.11c-0.13-6.42-0.03-6.42-6.56-6.42
		c-5.23,0-10.46-0.05-15.68,0.03c-1.7,0.03-2.39-0.49-2.31-2.27c0.12-2.73,0.1-5.48,0.01-8.21c-0.06-1.65,0.42-2.39,2.22-2.38
		c19.25,0.05,38.51,0.04,57.76,0.01c1.6,0,2.22,0.54,2.17,2.17c-0.1,2.82-0.12,5.65,0.01,8.46c0.08,1.83-0.69,2.24-2.35,2.22
		c-6.39-0.07-12.78,0.03-19.17-0.06c-1.75-0.03-2.39,0.51-2.25,2.26c0.13,1.57,0.13,3.16,0,4.73c-0.16,1.94,0.55,2.58,2.53,2.57
		c11.37-0.08,22.74-0.04,34.11-0.04c0.41,0,0.84,0.05,1.24-0.01c1.85-0.28,2.43,0.47,2.41,2.34c-0.09,8.3-0.04,16.6-0.04,24.9
		c0,4.15-0.06,8.3,0.03,12.45c0.03,1.68-0.43,2.39-2.24,2.32c-3.23-0.13-6.48-0.14-9.71,0c-1.85,0.08-2.21-0.7-2.2-2.34
		c0.06-8.3-0.04-16.6,0.08-24.9c0.03-1.91-0.55-2.34-2.38-2.32C70.14,35.33,59.76,35.29,49.39,35.29z"/>
	<path class="st0" d="M84.38,102.64c-12.5,0.04-21.79-6.62-27.22-18.99c-2.36-5.39-3.96-11.05-5.57-16.7
		c-0.39-1.37-0.07-1.89,1.3-2.27c3.43-0.95,6.83-2.03,10.21-3.15c1.51-0.5,2.2-0.13,2.67,1.44c1.76,5.86,3.44,11.75,6.39,17.19
		c4.01,7.39,9.96,10.34,17.91,8.48c3.24-0.76,6.2-2.29,9.05-4.01c0.92-0.55,1.89-1.13,2.59-1.91c1.41-1.56,2.34-1.49,3.5,0.33
		c1.46,2.3,3.18,4.45,4.83,6.62c0.7,0.92,0.92,1.63-0.1,2.52C104.14,97.28,94.53,103.02,84.38,102.64z"/>
	<path class="st0" d="M45,68.33c-0.27,0.55-0.62,1.39-1.08,2.16c-4.63,7.78-11,14.09-17.46,20.3c-5.1,4.91-10.73,9.12-16.87,12.66
		c-1.47,0.85-2.24,0.73-3.11-0.8c-1.68-2.95-3.5-5.83-5.41-8.64c-1.01-1.49-0.66-2.22,0.8-3.07c8.24-4.78,15.38-10.93,21.85-17.89
		c3.12-3.36,6.03-6.85,8.2-10.9c0.7-1.31,1.32-1.35,2.49-0.69c3.09,1.77,6.24,3.44,9.37,5.14C44.36,66.93,45.01,67.18,45,68.33z"/>
	<path class="st0" d="M49.25,55.9c-7.14,0-14.27-0.06-21.4,0.04c-1.89,0.03-2.71-0.36-2.57-2.44c0.18-2.73,0.09-5.47,0.02-8.21
		c-0.03-1.37,0.42-1.89,1.86-1.89c14.77,0.04,29.54,0.04,44.3,0c1.39,0,1.91,0.38,1.86,1.82c-0.09,2.98-0.1,5.98,0,8.96
		c0.06,1.54-0.62,1.75-1.93,1.74C64.02,55.88,56.63,55.9,49.25,55.9z"/>
</g>
</svg>
