<svg x="0px" y="0px" width="84.55px"
	 height="102.84px" viewBox="0 0 84.55 102.84" >
<style type="text/css">
	.st1{fill:#FFFFFF;stroke:#000000;stroke-miterlimit:10;}
</style>
<defs>
</defs>
<g>
	<path class="st0" d="M51.07,89.92c-2.53-3.05-4.02-6.13-4.41-9.68c-1.1-10,6.74-16.95,14.79-18.09c6.59-0.93,12.76,0.14,17.66,5.19
		c7.18,7.41,6.46,19.76-1.61,26.91c-6.91,6.13-15.32,8.04-24.22,8.09c-13.9,0.08-26.28-4.13-36.51-13.8
		c-9.76-9.23-14.93-20.62-16.08-34c-1.07-12.48,2.14-23.68,9.58-33.61c7.06-9.41,16.5-15.61,27.86-18.48
		c10.7-2.7,21.46-2.87,31.99,1.27c9.5,3.74,14.46,11.43,13.75,21.58c-0.64,9.28-9.9,16.72-19.82,15.83
		c-7.98-0.72-14.2-4.14-16.81-12.16c-1.6-4.91-0.68-9.66,2.16-14.01c0.39-0.59,1.17-0.98,1.06-1.86
		c-16.19,0.02-33.24,13.89-34.49,34.53C14.44,73.04,32.13,89.37,51.07,89.92z"/>
	<path class="st1" d="M70.78,22.55c0.04,3.48-2.29,6.16-5.4,6.21c-3.25,0.05-5.79-2.74-5.82-6.4c-0.02-2.62,2.72-6.66,4.6-6.77
		C66.98,15.4,70.75,19.38,70.78,22.55z"/>
	<path class="st1" d="M70.79,80.31c-0.01,3.18-3.69,7.09-6.57,6.98c-1.95-0.08-4.68-3.98-4.68-6.69c0-3.55,2.68-6.55,5.81-6.5
		C68.4,74.15,70.8,76.89,70.79,80.31z"/>
</g>
</svg>
