<svg x="0px" y="0px" width="70px" height="120px" viewBox="0 0 70 124">
	<defs />
	<path
		d="M16.73,98.67c1.12,2.1,1.79,4,2.99,5.47c4.74,5.82,14.89,4.7,17.6-2.3c1.53-3.96,1.46-8.56,1.87-12.9
	c0.04-0.41-1.6-1.4-2.47-1.41c-8.91-0.11-17.82-0.07-26.74-0.07c-1.06,0-2.12,0-3.42,0c0-4.96,0-9.68,0-14.85
	c10.9,0,21.71,0,32.44,0c1.16-8.01,1.16-8.01-6.21-8.01c-8.32,0-16.65-0.01-24.97-0.03c-0.29,0-0.58-0.09-1.09-0.17
	c0-4.62,0-9.26,0-14.24C7.7,50.11,8.73,50,9.76,49.99c8.81-0.01,17.63-0.08,26.44,0.04c2.41,0.03,3.32-0.69,3.18-3.17
	c-0.19-3.37-0.05-6.75-0.05-10.65c-3.09,1.91-5.52,3.68-8.17,5c-11.5,5.73-25.85,0.46-29.73-11.13C-3.58,15.15,5.11,3.2,18.59,0.72
	c11.66-2.14,22.24,0.22,30.2,10.57c3.96-3.75,7.74-7.33,11.78-11.16c2.78,3.24,5.52,6.27,8,9.49c0.37,0.48-0.14,2.18-0.76,2.79
	c-3.84,3.77-7.86,7.36-11.73,11.1c-0.67,0.65-1.32,1.76-1.3,2.64c0.19,6.83,0.67,13.65,0.79,20.48c0.04,2.52,0.72,3.48,3.34,3.41
	c5.85-0.16,11.7-0.05,17.74-0.05c0,4.98,0,9.62,0,14.62c-5.79,0-11.44-0.06-17.09,0.04c-1.25,0.02-3.46,0.39-3.57,0.93
	c-0.41,2.05-0.26,4.25,0,6.35c0.04,0.36,1.68,0.71,2.58,0.73c4.99,0.07,9.99,0.04,14.98,0.04c0.96,0,1.93,0,3.09,0
	c0,4.96,0,9.69,0,14.77c-5,0-9.87,0-14.74,0c-6.24,0-6.3,0-6.26,6.13c0.04,6.75-1.42,13.04-5.63,18.44
	c-7.4,9.48-17.5,11.55-28.7,9.82c-8.44-1.3-14.51-6-17.82-13.99c-0.48-1.17-0.79-2.41-1.11-3.64c-0.12-0.45-0.06-0.95-0.1-1.69
	C7.14,101.24,11.92,99.96,16.73,98.67z M16.19,21.75c-0.03,6.27,5.56,10.19,11.24,7.51c2.84-1.34,5.23-3.65,7.81-5.55
	c1.47-1.08,1.36-2.41,0.56-3.87c-1.96-3.61-5.14-5.51-9-6.41C20.89,12.06,16.22,15.75,16.19,21.75z"
	/>
</svg>
